<svg xmlns="http://www.w3.org/2000/svg" viewBox="0 0 64 64">
  <defs>
    <linearGradient id="sondaGrad" x1="8" y1="8" x2="56" y2="56" gradientUnits="userSpaceOnUse">
      <stop offset="0" stop-color="#3B82F6" />
      <stop offset="1" stop-color="#6A8DFF" />
    </linearGradient>
  </defs>
  <rect x="4" y="4" width="56" height="56" rx="16" fill="#14203A" />
  <path
    d="M42.8 19.4c-2.8-2.4-6.8-3.8-11.1-3.8-6.8 0-12.2 3.4-12.2 9.1 0 5.2 4.3 7.2 10.8 8.7 5.2 1.2 7 2 7 4.2 0 2.3-2.3 3.7-6 3.7-4 0-7.7-1.5-10.8-4.2l-4.1 5c3.7 3.6 9 5.6 14.7 5.6 8.4 0 13.9-4 13.9-10.3 0-5.7-3.8-7.9-10.6-9.4-5.3-1.2-7.2-1.9-7.2-4.1 0-2 1.8-3.2 5.1-3.2 3.2 0 6.4 1.2 9.1 3.3z"
    fill="url(#sondaGrad)"
  />
</svg>
